<?xml version="1.0" standalone="no"?>
<!DOCTYPE svg PUBLIC "-//W3C//DTD SVG 20010904//EN"
 "http://www.w3.org/TR/2001/REC-SVG-20010904/DTD/svg10.dtd">
<svg version="1.0" xmlns="http://www.w3.org/2000/svg"
 width="96.000000pt" height="96.000000pt" viewBox="0 0 96.000000 96.000000"
 preserveAspectRatio="xMidYMid meet">
<metadata>
Created by potrace 1.14, written by Peter Selinger 2001-2017
</metadata>
<g transform="translate(0.000000,96.000000) scale(0.100000,-0.100000)"
fill="#000000" stroke="none">
<path d="M110 876 c-11 -5 -23 -20 -27 -34 -8 -34 -8 -690 0 -724 5 -18 16
-30 33 -34 37 -9 688 -11 723 -1 18 4 33 16 37 30 9 28 10 693 1 729 -5 19
-16 30 -33 34 -41 10 -711 10 -734 0z m391 -180 c36 -15 79 -56 98 -93 19 -36
17 -107 -4 -152 l-18 -42 71 -71 c40 -39 72 -74 72 -79 0 -28 -31 -12 -95 50
-40 39 -76 71 -79 71 -4 0 -21 -7 -38 -16 -43 -22 -118 -22 -158 2 -52 30 -92
86 -97 138 -16 141 120 246 248 192z"/>
<path d="M358 648 c-91 -53 -89 -186 3 -241 21 -13 51 -22 66 -21 15 1 36 2
45 3 28 2 86 60 94 94 13 56 13 60 -2 96 -35 84 -127 115 -206 69z"/>
</g>
</svg>
